<svg xmlns="http://www.w3.org/2000/svg" xmlns:xlink="http://www.w3.org/1999/xlink" id="Layer_2"
  viewBox="0 0 1920 2400"
  stroke="#08e7e9"
>
  <defs>
    <style>
      .cls-1,.cls-2{fill:none;}.cls-3{clip-path:url(#clippath);}.cls-2{stroke-miterlimit:10;stroke-width:40px;}</style>
    <clipPath id="clippath">
      <rect class="cls-1" width="1920" height="2400"></rect>
    </clipPath>
  </defs>
  <g id="Layer_2-2">
    <g id="Layer_1-2">
      <g class="cls-3">
        <g>
          <polyline class="cls-2"
            points="-36.15 41.24 124.26 63.83 311.05 -19 577.65 78.89 871.34 -5.83 1174.56 101.48 1304.81 8.71 1615.63 82.65 1933.35 43.95"></polyline>
          <polyline class="cls-2"
            points="-37.74 144.31 144.04 182.9 342.22 98.52 599.11 186.05 883.31 102.07 1184.8 202.37 1409.96 138.64 1715.67 225.19 1933.35 145.94"></polyline>
          <polyline class="cls-2"
            points="-39.32 247.38 163.81 301.97 373.38 216.04 620.56 293.22 891.51 180.25 1154.14 290.53 1374.77 251.34 1663 294.44 1933.35 247.93"></polyline>
          <polyline class="cls-2"
            points="-40.91 350.45 183.59 421.05 404.55 333.56 702.92 398.07 898.52 290.03 1205.29 404.15 1381.34 350.54 1686.68 400.34 1933.35 349.92"></polyline>
          <polyline class="cls-2"
            points="-36.15 1500.92 148 1500.37 355 1424.83 577.65 1538.57 936 1464.18 1189 1531.06 1363 1426.41 1687 1494.08 1933.35 1436.64"></polyline>
          <polyline class="cls-2"
            points="-37.74 1603.99 144.7 1639.58 343.61 1551.92 601.44 1635.2 886.69 1546.52 1189.28 1641.83 1415.27 1574.38 1662 1640.44 1933 1572.77"></polyline>
          <polyline class="cls-2"
            points="-39.32 1707.06 163.81 1761.66 373.38 1675.72 620.56 1752.9 891.51 1639.94 1154.14 1750.21 1374.77 1711.02 1663 1754.13 1933.35 1707.61"></polyline>
          <polyline class="cls-2"
            points="-40.91 1810.13 183.59 1880.73 404.55 1793.24 702.92 1857.75 898.52 1749.71 1205.29 1863.83 1381.34 1810.22 1686.68 1860.02 1933.35 1809.6"></polyline>
          <polyline class="cls-2"
            points="-42.49 453.52 245.53 542.75 435.72 451.08 617.45 521.67 973.88 424.93 1249.4 510.51 1539.07 440.8 1710.36 506.23 1933.35 451.91"></polyline>
          <polyline class="cls-2"
            points="-44.08 556.59 173.51 647.82 466.89 568.6 709.49 619.9 931.23 533.65 1247.22 594.93 1475.18 555.42 1745.09 623.08 1933.35 553.9"></polyline>
          <polyline class="cls-2"
            points="-45.66 659.66 267.13 754.26 532.22 686.7 776.62 738.69 963.37 630.27 1195.16 706.81 1462.83 663 1798.59 718.02 1933.35 655.89"></polyline>
          <polyline class="cls-2"
            points="-45.23 775.18 315.69 869.57 544.52 791.29 762.43 845.34 984.49 756.7 1190.2 805.42 1486.97 766.43 1660.44 816.41 1933.35 769.07"></polyline>
          <polyline class="cls-2"
            points="-44.79 890.7 182.08 968.6 570.97 909.33 852.96 991 1006.74 877.26 1203.84 920.17 1472.57 867.55 1702.06 927.16 1933.35 882.25"></polyline>
          <polyline class="cls-2"
            points="-44.36 1006.21 300.68 1071.03 581.2 1030.11 778.19 1090.87 1026.46 994.31 1255.16 1021.32 1460.78 945.27 1674.23 1031.74 1933.35 995.43"></polyline>
          <polyline class="cls-2"
            points="-43.93 1121.73 338.51 1135.52 643.89 1174.63 826.76 1145.25 1022.46 1155.36 1161.14 1099.55 1443.76 1069.79 1646.4 1136.31 1933.35 1108.61"></polyline>
          <polyline class="cls-2"
            points="-45.66 1910.03 267.13 2004.63 532.22 1937.07 776.62 1989.06 963.37 1880.63 1195.16 1957.18 1462.83 1913.37 1798.59 1968.39 1933.35 1906.26"></polyline>
          <polyline class="cls-2"
            points="-45.23 2025.55 315.69 2119.94 544.52 2041.66 762.43 2095.71 984.49 2007.07 1190.2 2055.79 1486.97 2016.8 1660.44 2066.78 1933.35 2019.44"></polyline>
          <polyline class="cls-2"
            points="-44.79 2141.06 182.08 2218.97 570.97 2159.69 852.96 2241.37 1006.74 2127.63 1203.84 2170.54 1472.57 2117.92 1702.06 2177.53 1933.35 2132.62"></polyline>
          <polyline class="cls-2"
            points="-44.36 2256.58 300.68 2321.4 581.2 2280.48 778.19 2341.24 1026.46 2244.68 1255.16 2271.69 1460.78 2195.64 1674.23 2282.11 1933.35 2245.8"></polyline>
          <polyline class="cls-2"
            points="-43.93 2372.1 338.51 2385.89 643.89 2425 826.76 2395.61 1022.46 2405.73 1161.14 2349.92 1443.76 2320.16 1646.4 2386.68 1933.35 2358.98"></polyline>
          <polyline class="cls-2"
            points="-43.49 1237.25 322.52 1234.79 680.35 1296.75 856.85 1251.09 1048 1274.54 1211.25 1199.87 1429.35 1170.91 1618.56 1240.88 1933.35 1221.79"></polyline>
          <polyline class="cls-2"
            points="-43.06 1352.77 246 1331.98 716.81 1418.88 886.94 1356.93 1074 1402.01 1414.95 1272.04 1590.73 1345.46 1933.35 1334.97"></polyline>
        </g>
      </g>
    </g>
  </g>
</svg>